<svg xmlns="http://www.w3.org/2000/svg" viewBox="0 0 196.09 49.02"><defs><style>.cls-1{fill:#00a770;}.cls-2{fill:#fff;}</style></defs><g id="Cardif"><g id="Cardif-2" data-name="Cardif"><path class="cls-1" d="M47,46.46H3v-44H47Z"/><path class="cls-2" d="M37.34,14c-2.72,1.6-3.55,1.74-6.5,3.51a30.9,30.9,0,0,0,3.38-4.23,64.51,64.51,0,0,0-9.51,1.1,37.35,37.35,0,0,1,9.91-3.12C34,10.43,29.19,7.81,28,7.31a28.58,28.58,0,0,1,10.77,3.11A17.76,17.76,0,0,1,42.24,10a4.56,4.56,0,0,1-2.07,2.23c.45,1.21-.63,7.84-1.52,9.6,0-2.78-.27-6.28-1.31-7.81M17.44,37.81a10.79,10.79,0,0,1-3.92-2.41A12.34,12.34,0,0,1,15,32.55c-1.27.19-2.2.34-3.3.54A16.77,16.77,0,0,1,10,27.94a18.58,18.58,0,0,0,0,5.57,16,16,0,0,0-2.54.89,31.38,31.38,0,0,0,3.39,1.86,11.39,11.39,0,0,0,2.58,3.64,6.67,6.67,0,0,1-.24-2.78,16.14,16.14,0,0,0,4.32.69m4.07-22.07a8.77,8.77,0,0,0-1.2,2.36,20,20,0,0,1,7.25,2.61,23.25,23.25,0,0,0-6.69-.43,4.86,4.86,0,0,0-1.57.28,27.82,27.82,0,0,0-1.52,5.65c-.64-1.54-1.57-4.64-1.57-4.64-1.77.95-5.86,4.8-5.86,4.8a23.46,23.46,0,0,1,4.53-6.55c-.79-.79-2.84-1.19-4.35-1.26a17.42,17.42,0,0,1,4.33-.76,24.51,24.51,0,0,1,2.47,0,12.46,12.46,0,0,1,4.18-2.1M25.78,35a33.39,33.39,0,0,1-2.11,2.61,13,13,0,0,1-3.76.52,9.06,9.06,0,0,0,2.44.84A17,17,0,0,1,20,40.83a17.3,17.3,0,0,0,4.53-1.71A8.54,8.54,0,0,0,26.35,39,11.41,11.41,0,0,1,26,37.76a30.87,30.87,0,0,0,3.25-2.94,22.18,22.18,0,0,1-3.39,2c-.06-.6-.09-1.11-.12-1.79"/><path d="M63.14,32.12c1.46,0,3.06.53,3.06,1.87a2,2,0,0,1-1.57,1.72c1.25.45,2,1.17,2,2.11,0,1.65-2,2.2-3.88,2.2H58.43c.1-1,.13-2.51.13-4.15,0-1.08,0-2.73-.12-3.75Zm-1.21,1a7.06,7.06,0,0,0-1,.06c0,1-.06,1.53-.06,2.7,0,1.42,0,2,.06,3.08h1.14c1.35,0,2-.39,2-1.22s-.84-1.33-1.94-1.33h-.66L62,35.21h.48c.56,0,1.31-.29,1.31-1s-.69-1.09-1.84-1.09m13.38-1c-.08.89-.12,3-.12,3.75s0,3.07.12,4.15H73.44l-3-4.41a2.77,2.77,0,0,1-.5-1.09V37a29.64,29.64,0,0,0,.12,3H68c.13-1.2.14-3.46.14-4.15s0-2.86-.1-3.75h2.42l2.52,4.1a1.64,1.64,0,0,1,.23.49V32.12Zm5.76,0c1.72,0,3.78.48,3.78,2.31,0,1.62-1.46,2.42-4.44,2.42h-.79c.06,1.1,0,2.43.11,3.18H77.14c.1-1.08.13-2.87.13-4.15,0-1.13,0-3-.13-3.75Zm-1.42,1.1c0,.51,0,1,0,1.55s0,.68,0,1h.76c.84,0,2-.23,2-1.31s-1.18-1.23-2.08-1.23c-.12,0-.56,0-.67,0M93,32.12c1.72,0,3.79.48,3.79,2.31,0,1.62-1.47,2.42-4.45,2.42h-.79c.06,1.1,0,2.43.12,3.18H89.1c.11-1.08.14-2.87.14-4.15a37.51,37.51,0,0,0-.14-3.75Zm-1.42,1.1c0,.51,0,1,0,1.55s0,.68,0,1h.76c.84,0,2-.23,2-1.31s-1.19-1.23-2.08-1.23c-.12,0-.56,0-.68,0m9.82-1.1c.29.94,2.9,6.63,3.51,7.9h-2.6c-.1-.31-.31-.73-.69-1.73H100.3c-.53,0-.91,0-1.33,0-.24.64-.44,1.16-.63,1.71H96.08c.44-1,3-6.64,3.5-7.9Zm-.22,5c-.31-.76-.73-1.72-.94-2.37-.22.67-.69,1.71-.92,2.37l1,0c.37,0,.56,0,.91,0m8.58-5c1.73,0,3.8.61,3.8,2.45,0,1-.73,1.68-1.88,2.14.24.41,2.16,2.9,2.54,3.31h-2.83c-.5-1-1.45-2.59-2.39-4,1.13.15,2.11-.39,2.11-1.48s-1.2-1.35-1.79-1.35c-.26,0-.76,0-.93,0,0,.88-.06,1.77-.06,2.65,0,.69,0,3,.13,4.15h-2.64a39.16,39.16,0,0,0,.16-4.15,33.59,33.59,0,0,0-.13-3.75Zm8.1,0c-.06.89-.11,3-.11,3.76s0,3.06.11,4.14h-2.61c.13-1.2.14-3.46.14-4.14s0-2.87-.1-3.76Zm6.41,0c1.46,0,3.06.53,3.06,1.87a2,2,0,0,1-1.57,1.72c1.25.45,2,1.17,2,2.11,0,1.65-2,2.2-3.88,2.2h-4.29c.1-1,.13-2.51.13-4.15,0-1.08,0-2.73-.12-3.75Zm-1.21,1a7.06,7.06,0,0,0-1,.06c0,1-.06,1.53-.06,2.7,0,1.42,0,2,.06,3.08h1.14c1.35,0,2-.39,2-1.22s-.84-1.33-1.94-1.33h-.66l.46-1.19h.48c.56,0,1.31-.29,1.31-1s-.69-1.09-1.84-1.09m10.31-1c.3.94,2.9,6.63,3.51,7.9h-2.6c-.1-.31-.31-.73-.69-1.73h-1.35c-.53,0-.91,0-1.33,0-.24.64-.44,1.16-.63,1.71h-2.26c.44-1,3-6.64,3.51-7.9Zm-.22,5c-.31-.76-.73-1.72-.94-2.37-.22.67-.68,1.71-.92,2.37l1,0c.37,0,.56,0,.91,0m7.8-5.18a9.5,9.5,0,0,1,2.61.34v2a5.42,5.42,0,0,0-2.84-.92c-.9,0-.95.35-.95.61,0,1.34,4.5,1.35,4.5,3.74,0,1.56-1.45,2.54-3.87,2.54a8.76,8.76,0,0,1-2.82-.47V37.84a8.09,8.09,0,0,0,3.3,1c.62,0,1.07-.27,1.07-.8,0-1.51-4.49-1.37-4.49-3.93,0-1.41,1.41-2.22,3.49-2.22m16.1,4.27C157,37,157,38.6,157,39.54a8.17,8.17,0,0,1-3.48.69c-2.93,0-4.8-1.85-4.8-4.12s2-4.2,5.17-4.2a12.63,12.63,0,0,1,2.61.31l-.57,1.56a4.53,4.53,0,0,0-2.07-.62c-1.85,0-2.51,1.64-2.51,3,0,2.22,1.19,2.93,2.53,2.93a4.64,4.64,0,0,0,.83-.06c0-1,0-2.16-.09-2.81Zm5.47-4.06c1.73,0,3.79.61,3.79,2.45,0,1-.73,1.68-1.87,2.14.23.41,2.15,2.9,2.54,3.31h-2.83c-.5-1-1.46-2.59-2.4-4,1.13.15,2.12-.39,2.12-1.48s-1.2-1.35-1.79-1.35c-.26,0-.77,0-.94,0,0,.88-.06,1.77-.06,2.65,0,.69,0,3,.13,4.15H158.6a39.16,39.16,0,0,0,.16-4.15,33.59,33.59,0,0,0-.13-3.75Zm9.18,8.12A4.17,4.17,0,1,1,176,36.08a4.08,4.08,0,0,1-4.29,4.16m0-7.32c-1.15,0-1.87,1.12-1.87,3.16s.72,3.12,1.87,3.12,1.83-1.09,1.83-3.12-.7-3.16-1.83-3.16m8-.8c-.05.53-.06,1.07-.06,1.63v3.76c0,1,.32,1.63,1.33,1.63s1.75-.35,1.75-2V33.35a6.09,6.09,0,0,0-.07-1.23h2.18c-.09.69-.09,2-.09,3.25v2.25c0,1.81-1.27,2.61-3.79,2.61-2.29,0-3.7-.49-3.7-2.73V34.61a21,21,0,0,0-.12-2.49Zm10.6,0c1.72,0,3.79.48,3.79,2.31,0,1.62-1.47,2.42-4.45,2.42h-.79c.06,1.1,0,2.43.12,3.18h-2.6c.11-1.08.13-2.87.13-4.15,0-1.13,0-3-.13-3.75Zm-1.42,1.1c0,.51,0,1,0,1.55s0,.68,0,1h.76c.84,0,2-.23,2-1.31s-1.19-1.23-2.09-1.23c-.11,0-.55,0-.67,0M71.93,12.14a7,7,0,0,0-3.67-1c-4.49,0-6,3.6-6,6.63,0,4.22,2.59,6.39,6.06,6.39a7.76,7.76,0,0,0,5.25-2.29l0,3.64a15.42,15.42,0,0,1-6,1.11c-6.26,0-10.18-3.94-10.18-8.9,0-5.22,4.14-9,11-9A19.52,19.52,0,0,1,73,9.25l-1,2.89ZM86.6,9c.67,1.78,6.34,14.4,7.67,17.26H89.51c-.27-.79-.84-2.22-1.58-4.07-1,0-2-.05-3.4-.05s-2.29,0-3.43.05c-.5,1.34-1,2.7-1.38,4.07H75.58c1-2.15,6.78-14.72,7.69-17.26ZM87,19.9c-1.13-2.71-2.12-5-2.47-5.84-.79,1.68-1.65,3.65-2.56,5.84.74,0,1.75.05,2.56.05s1.63,0,2.47-.05M104.22,9c3.63,0,7.94,1,7.94,5,0,2.24-1.31,3.74-3.9,4.53a90.34,90.34,0,0,0,5.23,7.72h-5.15c-1.13-2.15-3.7-6.48-5.57-9.29a6.57,6.57,0,0,0,1.33.12c1.5,0,3.62-1.09,3.62-3.08,0-2.49-3-2.94-4.51-2.94a16.14,16.14,0,0,0-1.87.1c-.1,2.15-.15,4.83-.15,6,0,1.53,0,6.63.27,9H96.65c.25-2.39.3-5.47.3-9A81.14,81.14,0,0,0,96.7,9Zm18.33,0c7.27,0,10.06,3.82,10.06,8.6,0,4.94-2.72,8.66-10.33,8.66h-6.41c.24-2.32.24-5.5.24-9,0-1.68,0-6-.24-8.24Zm-2,2.17c-.1,1.13-.13,4.07-.13,6.07,0,2.51,0,4.48.1,6.83.25,0,.64.07,1.23.07,4.17,0,6.34-1.31,6.34-6.61,0-5.05-2.22-6.48-6.43-6.38l-1.11,0Zm20-2.17c-.15,2-.25,6.53-.25,8.24,0,1.5,0,6.63.25,9h-4.78c.24-2.39.27-7.52.27-9,0-1.68-.1-6.24-.22-8.24ZM157.8,9v2.49c-1.36-.07-4.74-.17-5.87-.17-.84,0-1.77,0-2.74.07,0,1.68,0,3.73-.07,5.06l6-.1V19l-6-.25c0,2.19,0,5.59.27,7.47h-4.83c.3-2.39.3-7.52.3-9,0-1.68-.13-6.24-.28-8.24Z"/></g></g></svg>