<svg width="385" height="99" viewBox="0 0 385 99" fill="none" xmlns="http://www.w3.org/2000/svg">
<path d="M77 1H62.0571V59.634C62.0571 84.1449 16.2643 83.6643 16.2643 59.634V37.8465H1V59.634C1 104.651 77 106.253 77 59.634V1Z" fill="url(#paint0_linear_648_196)"/>
<path d="M46.3108 19.5835H31.6892V57.3912C31.6892 65.5615 46.3108 66.0421 46.3108 57.3912V19.5835Z" fill="url(#paint1_linear_648_196)"/>
<path d="M77 1H62.0571V59.634C62.0571 84.1449 16.2643 83.6643 16.2643 59.634V37.8465H1V59.634C1 104.651 77 106.253 77 59.634V1Z" stroke="#E4C99C" stroke-width="2"/>
<path d="M46.3108 19.5835H31.6892V57.3912C31.6892 65.5615 46.3108 66.0421 46.3108 57.3912V19.5835Z" stroke="#E4C99C" stroke-width="2"/>
<path d="M153.266 7.04C153.56 7.04 153.871 7.04 154.201 7.04V7.59C150.168 7.59 146.978 8.92833 144.631 11.605C142.285 14.245 141.111 18.0767 141.111 23.1V41.415C141.111 45.705 139.755 49.17 137.041 51.81C134.328 54.45 130.716 55.77 126.206 55.77C121.696 55.77 118.03 54.4683 115.206 51.865C112.42 49.225 111.026 45.76 111.026 41.47V19.745C111.026 18.6817 110.55 17.8933 109.596 17.38C109.156 17.16 108.661 17.05 108.111 17.05H107.231V16.5H118.396V17.05H117.516C116.71 17.05 116.031 17.3067 115.481 17.82C114.931 18.2967 114.638 18.92 114.601 19.69V40.7C114.601 44.6967 115.665 47.9233 117.791 50.38C119.955 52.8 122.778 54.01 126.261 54.01C129.965 54.01 132.935 52.855 135.171 50.545C137.408 48.235 138.526 45.1917 138.526 41.415V23.155C138.526 17.765 139.883 13.7317 142.596 11.055C145.346 8.37833 148.903 7.04 153.266 7.04ZM162.188 18.205H158.668V50.985C158.668 51.9383 158.998 52.7633 159.658 53.46C160.354 54.12 161.198 54.45 162.188 54.45H162.848L162.903 55H150.858V54.45H151.573C152.526 54.45 153.333 54.12 153.993 53.46C154.689 52.8 155.056 51.9933 155.093 51.04V20.515C155.056 19.5617 154.689 18.755 153.993 18.095C153.333 17.3983 152.526 17.05 151.573 17.05H150.858V16.5H165.708C169.044 16.5 171.666 17.435 173.573 19.305C175.479 21.1383 176.433 23.54 176.433 26.51C176.433 29.4433 175.516 31.9917 173.683 34.155C171.886 36.2817 169.686 37.345 167.083 37.345C167.633 37.6017 168.274 38.115 169.008 38.885C169.778 39.6183 170.456 40.3883 171.043 41.195C174.196 45.705 176.249 48.4917 177.203 49.555C178.156 50.5817 178.834 51.2967 179.238 51.7C179.641 52.0667 180.081 52.4333 180.558 52.8C181.034 53.1667 181.511 53.46 181.988 53.68C183.051 54.1933 184.188 54.45 185.398 54.45V55H182.373C180.796 55 179.329 54.725 177.973 54.175C176.616 53.5883 175.589 53.0017 174.893 52.415C174.233 51.7917 173.646 51.205 173.133 50.655C172.656 50.0683 171.299 48.1617 169.063 44.935C166.826 41.7083 165.524 39.875 165.158 39.435C164.791 38.9583 164.406 38.5 164.003 38.06C162.829 36.8133 161.656 36.19 160.483 36.19V35.64C160.776 35.6767 161.161 35.695 161.638 35.695C162.114 35.695 162.701 35.6767 163.398 35.64C167.944 35.53 170.804 33.6233 171.978 29.92C172.198 29.1867 172.308 28.5083 172.308 27.885C172.308 27.225 172.308 26.8033 172.308 26.62C172.234 24.1633 171.593 22.1833 170.383 20.68C169.173 19.1767 167.541 18.37 165.488 18.26C164.608 18.2233 163.508 18.205 162.188 18.205ZM197.744 18.205H194.224V50.985C194.224 51.9383 194.554 52.7633 195.214 53.46C195.911 54.12 196.754 54.45 197.744 54.45H198.404L198.459 55H186.414V54.45H187.129C188.083 54.45 188.889 54.12 189.549 53.46C190.246 52.8 190.613 51.9933 190.649 51.04V20.515C190.613 19.5617 190.246 18.755 189.549 18.095C188.889 17.3983 188.083 17.05 187.129 17.05H186.414V16.5H201.264C204.601 16.5 207.223 17.435 209.129 19.305C211.036 21.1383 211.989 23.54 211.989 26.51C211.989 29.4433 211.073 31.9917 209.239 34.155C207.443 36.2817 205.243 37.345 202.639 37.345C203.189 37.6017 203.831 38.115 204.564 38.885C205.334 39.6183 206.013 40.3883 206.599 41.195C209.753 45.705 211.806 48.4917 212.759 49.555C213.713 50.5817 214.391 51.2967 214.794 51.7C215.198 52.0667 215.638 52.4333 216.114 52.8C216.591 53.1667 217.068 53.46 217.544 53.68C218.608 54.1933 219.744 54.45 220.954 54.45V55H217.929C216.353 55 214.886 54.725 213.529 54.175C212.173 53.5883 211.146 53.0017 210.449 52.415C209.789 51.7917 209.203 51.205 208.689 50.655C208.213 50.0683 206.856 48.1617 204.619 44.935C202.383 41.7083 201.081 39.875 200.714 39.435C200.348 38.9583 199.963 38.5 199.559 38.06C198.386 36.8133 197.213 36.19 196.039 36.19V35.64C196.333 35.6767 196.718 35.695 197.194 35.695C197.671 35.695 198.258 35.6767 198.954 35.64C203.501 35.53 206.361 33.6233 207.534 29.92C207.754 29.1867 207.864 28.5083 207.864 27.885C207.864 27.225 207.864 26.8033 207.864 26.62C207.791 24.1633 207.149 22.1833 205.939 20.68C204.729 19.1767 203.098 18.37 201.044 18.26C200.164 18.2233 199.064 18.205 197.744 18.205ZM258.022 17.05H257.142C256.372 17.05 255.693 17.3067 255.107 17.82C254.557 18.2967 254.263 18.9017 254.227 19.635V41.415C254.227 45.705 252.87 49.17 250.157 51.81C247.443 54.45 243.832 55.77 239.322 55.77C234.812 55.77 231.145 54.4683 228.322 51.865C225.535 49.225 224.142 45.76 224.142 41.47V19.8C224.142 18.7 223.665 17.8933 222.712 17.38C222.272 17.16 221.777 17.05 221.227 17.05H220.347V16.5H231.512V17.05H230.632C229.825 17.05 229.147 17.3067 228.597 17.82C228.047 18.2967 227.753 18.92 227.717 19.69V40.7C227.717 44.6967 228.78 47.9233 230.907 50.38C233.07 52.8367 235.948 54.065 239.542 54.065C243.135 54.065 246.05 52.91 248.287 50.6C250.523 48.2533 251.642 45.1917 251.642 41.415V19.69C251.605 18.92 251.312 18.2967 250.762 17.82C250.212 17.3067 249.533 17.05 248.727 17.05H247.847V16.5H258.022V17.05ZM293.175 21.395C293.175 20.515 292.864 19.7633 292.24 19.14C291.617 18.48 290.884 18.1317 290.04 18.095H279.59V51.04C279.627 51.9933 279.975 52.8 280.635 53.46C281.332 54.12 282.157 54.45 283.11 54.45H283.825V55H271.78V54.45H272.495C273.449 54.45 274.255 54.12 274.915 53.46C275.612 52.8 275.979 52.0117 276.015 51.095V18.095H265.565C264.685 18.1317 263.934 18.48 263.31 19.14C262.724 19.7633 262.43 20.515 262.43 21.395V22.33L261.88 22.385V15.455C262.43 15.675 263.384 15.895 264.74 16.115C266.097 16.335 267.344 16.445 268.48 16.445H287.07C288.867 16.445 290.352 16.3167 291.525 16.06C292.735 15.7667 293.469 15.565 293.725 15.455V22.385L293.175 22.33V21.395ZM298.794 54.45C299.748 54.45 300.554 54.12 301.214 53.46C301.911 52.7633 302.278 51.9383 302.314 50.985V20.46C302.278 19.5067 301.911 18.7 301.214 18.04C300.554 17.38 299.748 17.05 298.794 17.05H298.079V16.5H310.124V17.05H309.409C308.456 17.05 307.631 17.38 306.934 18.04C306.274 18.7 305.926 19.5067 305.889 20.46V50.985C305.889 51.9383 306.238 52.7633 306.934 53.46C307.631 54.12 308.456 54.45 309.409 54.45H310.124V55H298.079V54.45H298.794ZM352.743 54.45H353.183V55H340.808V54.45H341.303C342.073 54.45 342.642 54.2117 343.008 53.735C343.412 53.2217 343.613 52.745 343.613 52.305C343.613 51.865 343.54 51.425 343.393 50.985L339.873 41.635H325.023L321.338 51.04C321.192 51.48 321.118 51.92 321.118 52.36C321.118 52.7633 321.302 53.2217 321.668 53.735C322.072 54.2117 322.658 54.45 323.428 54.45H323.923V55H312.868V54.45H313.363C314.28 54.45 315.178 54.1567 316.058 53.57C316.938 52.9833 317.653 52.1217 318.203 50.985L330.633 21.395C331.99 18.425 332.668 16.5367 332.668 15.73H333.163L347.903 50.985C348.417 52.1217 349.113 52.9833 349.993 53.57C350.873 54.1567 351.79 54.45 352.743 54.45ZM325.683 39.985H339.213L332.613 22.33L325.683 39.985Z" fill="white"/>
<path d="M123.134 79.5801V84.3857C122.98 84.6146 122.714 84.8682 122.336 85.1465C121.959 85.4248 121.452 85.6691 120.815 85.8794C120.178 86.0835 119.386 86.1855 118.44 86.1855C117.648 86.1855 116.922 86.0433 116.26 85.7588C115.598 85.4743 115.023 85.063 114.534 84.5249C114.052 83.9806 113.678 83.3281 113.412 82.5674C113.152 81.8066 113.022 80.9531 113.022 80.0068V78.374C113.022 77.4463 113.143 76.6113 113.384 75.8691C113.625 75.1208 113.974 74.4806 114.432 73.9487C114.89 73.4168 115.44 73.0117 116.083 72.7334C116.733 72.4489 117.46 72.3066 118.264 72.3066C119.266 72.3066 120.11 72.4798 120.796 72.8262C121.483 73.1725 122.018 73.6488 122.401 74.2549C122.791 74.8548 123.032 75.5352 123.125 76.2959H121.984C121.897 75.7578 121.718 75.263 121.446 74.8115C121.174 74.3538 120.778 73.9858 120.258 73.7075C119.745 73.4292 119.08 73.29 118.264 73.29C117.608 73.29 117.024 73.4106 116.51 73.6519C116.003 73.8931 115.576 74.2363 115.23 74.6816C114.884 75.127 114.621 75.6619 114.441 76.2866C114.262 76.9051 114.172 77.5947 114.172 78.3555V80.0068C114.172 80.7985 114.271 81.5129 114.469 82.1499C114.673 82.7869 114.964 83.3343 115.341 83.792C115.719 84.2497 116.17 84.6022 116.696 84.8496C117.221 85.0908 117.806 85.2114 118.449 85.2114C119.136 85.2114 119.72 85.1465 120.203 85.0166C120.685 84.8867 121.072 84.7321 121.362 84.5527C121.659 84.3672 121.873 84.194 122.002 84.0332V80.5542H118.375V79.5801H123.134ZM141.636 85.0259V86H134.038V85.0259H141.636ZM134.381 72.4922V86H133.24V72.4922H134.381ZM140.69 78.5503V79.5244H134.038V78.5503H140.69ZM141.589 72.4922V73.4756H134.038V72.4922H141.589ZM158.542 82.6787C158.542 82.3076 158.48 81.9767 158.356 81.686C158.233 81.3953 158.028 81.1356 157.744 80.9067C157.466 80.6717 157.088 80.4552 156.612 80.2573C156.142 80.0532 155.554 79.8522 154.849 79.6543C154.175 79.4626 153.566 79.2523 153.022 79.0234C152.477 78.7946 152.011 78.5317 151.621 78.2349C151.237 77.938 150.944 77.5916 150.74 77.1958C150.535 76.7938 150.433 76.3268 150.433 75.7949C150.433 75.2754 150.545 74.8022 150.767 74.3755C150.99 73.9487 151.302 73.5807 151.704 73.2715C152.113 72.9622 152.592 72.7241 153.142 72.5571C153.699 72.3901 154.308 72.3066 154.97 72.3066C155.916 72.3066 156.733 72.486 157.419 72.8447C158.112 73.2035 158.647 73.689 159.024 74.3013C159.408 74.9074 159.599 75.5877 159.599 76.3423H158.458C158.458 75.7547 158.319 75.2321 158.041 74.7744C157.769 74.3105 157.373 73.9487 156.853 73.689C156.34 73.423 155.712 73.29 154.97 73.29C154.228 73.29 153.603 73.4045 153.096 73.6333C152.595 73.856 152.215 74.1559 151.955 74.5332C151.701 74.9043 151.574 75.3187 151.574 75.7764C151.574 76.098 151.636 76.3949 151.76 76.667C151.884 76.9329 152.085 77.1834 152.363 77.4185C152.648 77.6473 153.022 77.8638 153.486 78.0679C153.949 78.2658 154.522 78.4544 155.202 78.6338C155.919 78.8317 156.556 79.0513 157.113 79.2925C157.67 79.5337 158.14 79.812 158.523 80.1274C158.907 80.4367 159.197 80.7985 159.395 81.2129C159.593 81.6273 159.692 82.1097 159.692 82.6602C159.692 83.2106 159.575 83.7054 159.34 84.1445C159.111 84.5775 158.786 84.9455 158.366 85.2485C157.951 85.5516 157.459 85.7835 156.89 85.9443C156.328 86.1051 155.712 86.1855 155.044 86.1855C154.444 86.1855 153.847 86.1082 153.254 85.9536C152.66 85.799 152.116 85.5609 151.621 85.2393C151.132 84.9115 150.74 84.4909 150.443 83.9775C150.152 83.4642 150.007 82.8519 150.007 82.1406H151.138C151.138 82.7096 151.253 83.189 151.482 83.5786C151.711 83.9683 152.014 84.2837 152.391 84.5249C152.774 84.7661 153.195 84.9424 153.653 85.0537C154.116 85.1589 154.58 85.2114 155.044 85.2114C155.755 85.2114 156.371 85.1063 156.89 84.896C157.416 84.6857 157.821 84.3919 158.106 84.0146C158.396 83.6312 158.542 83.1859 158.542 82.6787ZM173.527 72.4922V86H172.395V72.4922H173.527ZM178.157 72.4922V73.4756H167.775V72.4922H178.157ZM188.587 72.4922V86H187.446V72.4922H188.587ZM209.074 78.5225V79.9697C209.074 80.916 208.95 81.7726 208.703 82.5396C208.462 83.3003 208.109 83.9528 207.645 84.4971C207.188 85.0413 206.637 85.4588 205.994 85.7495C205.351 86.0402 204.627 86.1855 203.823 86.1855C203.038 86.1855 202.32 86.0402 201.671 85.7495C201.027 85.4588 200.474 85.0413 200.01 84.4971C199.546 83.9528 199.187 83.3003 198.934 82.5396C198.68 81.7726 198.553 80.916 198.553 79.9697V78.5225C198.553 77.5762 198.677 76.7227 198.925 75.9619C199.178 75.195 199.537 74.5394 200.001 73.9951C200.465 73.4508 201.018 73.0334 201.661 72.7427C202.305 72.452 203.019 72.3066 203.804 72.3066C204.608 72.3066 205.332 72.452 205.975 72.7427C206.619 73.0334 207.172 73.4508 207.636 73.9951C208.1 74.5394 208.455 75.195 208.703 75.9619C208.95 76.7227 209.074 77.5762 209.074 78.5225ZM207.942 79.9697V78.5039C207.942 77.7061 207.849 76.9886 207.664 76.3516C207.484 75.7145 207.215 75.1702 206.857 74.7188C206.504 74.2673 206.071 73.9209 205.558 73.6797C205.045 73.4385 204.46 73.3179 203.804 73.3179C203.167 73.3179 202.595 73.4385 202.088 73.6797C201.581 73.9209 201.148 74.2673 200.789 74.7188C200.437 75.1702 200.165 75.7145 199.973 76.3516C199.787 76.9886 199.695 77.7061 199.695 78.5039V79.9697C199.695 80.7738 199.787 81.4974 199.973 82.1406C200.165 82.7777 200.44 83.325 200.799 83.7827C201.157 84.2342 201.59 84.5806 202.097 84.8218C202.611 85.063 203.186 85.1836 203.823 85.1836C204.485 85.1836 205.069 85.063 205.576 84.8218C206.084 84.5806 206.513 84.2342 206.866 83.7827C207.219 83.325 207.484 82.7777 207.664 82.1406C207.849 81.4974 207.942 80.7738 207.942 79.9697ZM228.856 72.4922V86H227.705L219.94 74.459V86H218.799V72.4922H219.94L227.724 84.0332V72.4922H228.856ZM255.218 80.4985H251.368V79.5244H255.218C256.022 79.5244 256.675 79.3945 257.176 79.1348C257.683 78.8688 258.051 78.5101 258.28 78.0586C258.515 77.6071 258.632 77.0999 258.632 76.5371C258.632 75.9867 258.515 75.4795 258.28 75.0156C258.051 74.5518 257.683 74.1807 257.176 73.9023C256.675 73.6178 256.022 73.4756 255.218 73.4756H251.767V86H250.626V72.4922H255.218C256.208 72.4922 257.039 72.6623 257.714 73.0024C258.394 73.3426 258.907 73.8158 259.254 74.4219C259.6 75.028 259.773 75.7269 259.773 76.5186C259.773 77.3473 259.6 78.0617 259.254 78.6616C258.907 79.2554 258.397 79.71 257.723 80.0254C257.049 80.3408 256.214 80.4985 255.218 80.4985ZM269.146 72.4922H273.534C274.468 72.4922 275.278 72.6437 275.965 72.9468C276.651 73.2498 277.18 73.6982 277.551 74.292C277.928 74.8796 278.117 75.6032 278.117 76.4629C278.117 77.0999 277.981 77.6782 277.709 78.1978C277.443 78.7173 277.075 79.1533 276.605 79.5059C276.135 79.8522 275.591 80.0903 274.972 80.2202L274.573 80.3687H269.888L269.87 79.3945H273.794C274.499 79.3945 275.086 79.2585 275.557 78.9863C276.027 78.7142 276.379 78.3555 276.614 77.9102C276.855 77.4587 276.976 76.9762 276.976 76.4629C276.976 75.8506 276.843 75.3218 276.577 74.8765C276.317 74.425 275.931 74.0786 275.417 73.8374C274.904 73.5962 274.276 73.4756 273.534 73.4756H270.287V86H269.146V72.4922ZM277.486 86L273.989 79.9604L275.213 79.9512L278.702 85.8794V86H277.486ZM289.484 72.4922V86H288.343V72.4922H289.484ZM304.219 84.3208L308.478 72.4922H309.721L304.693 86H303.774L304.219 84.3208ZM299.822 72.4922L304.062 84.3208L304.526 86H303.598L298.579 72.4922H299.822ZM326.961 85.0259V86H319.363V85.0259H326.961ZM319.706 72.4922V86H318.565V72.4922H319.706ZM326.015 78.5503V79.5244H319.363V78.5503H326.015ZM326.914 72.4922V73.4756H319.363V72.4922H326.914ZM321.942 71.3789L323.714 68.7812H325.05L322.907 71.3789H321.942ZM344.618 85.0259V86H337.02V85.0259H344.618ZM337.363 72.4922V86H336.222V72.4922H337.363ZM343.672 78.5503V79.5244H337.02V78.5503H343.672ZM344.572 72.4922V73.4756H337.02V72.4922H344.572Z" fill="white"/>
<defs>
<linearGradient id="paint0_linear_648_196" x1="77" y1="0.8398" x2="1.43103" y2="94.2961" gradientUnits="userSpaceOnUse">
<stop stop-color="#E4C99C"/>
<stop offset="1" stop-color="#D09E45"/>
</linearGradient>
<linearGradient id="paint1_linear_648_196" x1="77" y1="0.8398" x2="1.43103" y2="94.2961" gradientUnits="userSpaceOnUse">
<stop stop-color="#E4C99C"/>
<stop offset="1" stop-color="#D09E45"/>
</linearGradient>
</defs>
</svg>
